<svg xmlns="http://www.w3.org/2000/svg" width="100.778" height="80" viewBox="0 0 100.778 80">
  <g id="icon-tourist" transform="translate(0 -0.001)">
    <path id="Path_50" data-name="Path 50" d="M807.995,229.746l10.042-14.933-10.021,16.539.021,1.68q-1.1.008-2.178-.037l.5-21.6-.014-.167.018-.032.048-2.041-11-15.966L806.4,207.63l.039.431.376-16.319-9.5-16.553,9.525,13.686-.1-33.809v-.113l0,.111.631,26.646,8.656-10.824L807.4,184.006l.189,14.6,7.966-14.246-7.936,16.392.105,8.117,11.584-19.845L807.759,211.7Z" transform="translate(-718.531 -154.953)" fill="#e1cdcd"/>
    <ellipse id="Ellipse_4" data-name="Ellipse 4" cx="42.57" cy="2.169" rx="42.57" ry="2.169" transform="translate(8.485 75.662)" fill="#e1cdcd"/>
    <circle id="Ellipse_5" data-name="Ellipse 5" cx="1.289" cy="1.289" r="1.289" transform="translate(74.639 76.771)" fill="#3f3d56"/>
    <path id="Path_51" data-name="Path 51" d="M726.644,465.653l-3.4-9.02s.527-1.7-.879-1.581a35.691,35.691,0,0,0-5.154,1.406s-1.289.117.469,1.933l3.046,9.547,1-.469-3.28-9.489a.654.654,0,0,1,.469-.82c.644-.176,3.1-1.23,3.339-.586s3.28,9.9,3.28,9.9Z" transform="translate(-650.54 -414.362)" fill="#3f3d56"/>
    <path id="Path_52" data-name="Path 52" d="M720.579,526.231l6.56,19.621a7.051,7.051,0,0,0,1.712.828,8.973,8.973,0,0,0,1.685.4,2.037,2.037,0,0,0,.637-.05c3.373-.674,14.943-6.861,14.943-6.861s-5.916-18.45-6.911-20.676a2.537,2.537,0,0,0-3.221-1.406s-11.243,3.036-12.857,3.6l-.088.032a3.653,3.653,0,0,0-1.757,1.347h0C719.642,524.064,720.579,526.231,720.579,526.231Z" transform="translate(-653.613 -468.73)" fill="#b02a30"/>
    <path id="Path_53" data-name="Path 53" d="M757.013,521.875l.032.113c.508-.142.94.99.945,1l7.2,19.972.11-.04-.913-2.533,9.812-4.334.773,2.22.111-.039-6.445-18.515,0-.006c-.023-.036-.566-.885-1.211-.714l.03.113c.539-.143,1.032.588,1.078.658l1.364,3.919-10.315,3.372-1.484-4.115C758.08,522.9,757.624,521.7,757.013,521.875Zm12.924,1.928,1,2.887L760.787,530.4l-1.164-3.226Zm-7.951,9.922-1.159-3.214L770.98,526.8l1,2.866Zm10.03-3.947,1.094,3.142-9.975,3.992-1.109-3.076Zm-7.666,10.5-1.175-3.258,9.974-3.991,1.015,2.915Z" transform="translate(-685.338 -469.627)" opacity="0.2"/>
    <path id="Path_54" data-name="Path 54" d="M725.8,549.423c.586.937,7.146,20.559,7.146,20.559a3.746,3.746,0,0,0,.423.593,8.974,8.974,0,0,0,1.685.4,2.039,2.039,0,0,0,.637-.05,2.953,2.953,0,0,1-1.75-2c-.586-1.816-7.029-20.969-7.029-20.969a8,8,0,0,1,.732-2.375l-.088.032a3.653,3.653,0,0,0-1.757,1.347h0A3.291,3.291,0,0,0,725.8,549.423Z" transform="translate(-658.134 -492.625)" opacity="0.2"/>
    <path id="Path_55" data-name="Path 55" d="M733.117,605.869l.644,1.991a8.148,8.148,0,0,0,2.226,6.5l.586,1.991-.605.016-.639-1.912a10.856,10.856,0,0,1-2.138-6.4l-.542-2.194Z" transform="translate(-664.276 -544.737)" fill="#3f3d56"/>
    <circle id="Ellipse_6" data-name="Ellipse 6" cx="1.289" cy="1.289" r="1.289" transform="translate(78.593 76.8)" fill="#3f3d56"/>
    <circle id="Ellipse_7" data-name="Ellipse 7" cx="1.289" cy="1.289" r="1.289" transform="translate(91.098 71.382)" fill="#3f3d56"/>
    <path id="Path_56" data-name="Path 56" d="M548.158,286.547s-2.983.542-3.118,1.762a14.284,14.284,0,0,0,0,2.576Z" transform="translate(-502.052 -268.706)" fill="#575a89"/>
    <path id="Path_57" data-name="Path 57" d="M503.156,306.3s-8.677,3.118-14.371.407-12.608-6.1-12.608-6.1-3.389.271-2.983-1.762,3.118-13.828,9.354-17.76c0,0,3.8-4.881,5.965-4.609s10.575,20.336,10.575,20.336Z" transform="translate(-439.968 -259.992)" fill="#575a89"/>
    <path id="Path_58" data-name="Path 58" d="M503.156,306.3s-8.677,3.118-14.371.407-12.608-6.1-12.608-6.1-3.389.271-2.983-1.762,3.118-13.828,9.354-17.76c0,0,3.8-4.881,5.965-4.609s10.575,20.336,10.575,20.336Z" transform="translate(-439.968 -259.992)" fill="#895757" opacity="0.2"/>
    <path id="Path_59" data-name="Path 59" d="M715.445,442.547l.542,1.356s3.525,2.169,2.034,3.66-3.736-2.508-3.736-2.508l-.873-1.695Z" transform="translate(-647.647 -403.557)" fill="#a0616a"/>
    <path id="Path_60" data-name="Path 60" d="M277.629,462.271l-.542,9.354,2.847,1.22,1.085-11.252Z" transform="translate(-239.522 -399.013)" fill="#a0616a"/>
    <path id="Path_61" data-name="Path 61" d="M366.087,466.593l3.8,4.881,1.085,3.254,2.711-.136.678-3.254-3.8-3.8Z" transform="translate(-316.456 -403.336)" fill="#a0616a"/>
    <circle id="Ellipse_8" data-name="Ellipse 8" cx="3.66" cy="3.66" r="3.66" transform="translate(45.632 8.012)" fill="#a0616a"/>
    <path id="Path_62" data-name="Path 62" d="M586.411,253.767l.271,3.389,4.338-1.356s-1.627-2.576-1.22-3.254Z" transform="translate(-537.865 -239.316)" fill="#a0616a"/>
    <path id="Path_63" data-name="Path 63" d="M551.834,270.5s2.569.678,4.064-.949l3.122,1.491-4.067,15.184-8.541-2.3,1.356-2.983A2.862,2.862,0,0,1,547.9,277s.407-3.8,1.627-4.609A17.447,17.447,0,0,0,551.834,270.5Z" transform="translate(-503.288 -254.011)" fill="#d0cde1"/>
    <path id="Path_64" data-name="Path 64" d="M603.584,269.047s-4.609,3.66.407,14.506,9.219,20.065,10.846,19.522,7.185-4.745,5.287-6.236-9.9-6.236-10.981-12.473,1.491-12.608,1.491-12.608Z" transform="translate(-551.039 -253.579)" fill="#895757"/>
    <path id="Path_65" data-name="Path 65" d="M414.714,144.593l11.659,19.658-3.254,1.356-10.032-13.557Z" transform="translate(-357.084 -124.99)" fill="#895757"/>
    <path id="Path_66" data-name="Path 66" d="M484.54,372.547h-.949l-3.525,7.592s-6.643,20.065-5.965,24.132,25.895,3.52,24.539,3.389c-1.29-.124-8-31.039-6.033-32.741Z" transform="translate(-440.739 -343.047)" fill="#2f2e41"/>
    <path id="Path_67" data-name="Path 67" d="M470.619,675.632a1.447,1.447,0,0,0-1.356-1.085c-1.085,0-1.085,1.491-1.085,1.491l-3.118,2.847s-2.711,3.389.813,3.389,3.525-.813,3.525-.813.949-.949,1.762-.407,2.711-.542,2.44-1.085-.676-4.051-.948-3.449S470.619,675.632,470.619,675.632Z" transform="translate(-432.105 -604.104)" fill="#2f2e41"/>
    <path id="Path_68" data-name="Path 68" d="M626.394,648.522s.271-.136-1.085,0a6.361,6.361,0,0,1-1.9,0l.949,3.66s-.813,6.236,1.9,5.694,2.711-4.338,2.711-4.338-.407-3.389-.136-3.66.136-3.932-.271-3.932a14.9,14.9,0,0,1-2.37-.878S627.478,648.522,626.394,648.522Z" transform="translate(-569.849 -578.621)" fill="#2f2e41"/>
    <path id="Path_69" data-name="Path 69" d="M565.749,203.2c-.228-.351-.113-.827-.272-1.214-.251-.607-1.03-.749-1.684-.8a5.021,5.021,0,0,0-1.305,0,1.253,1.253,0,0,0-.905.656c-.1.194-.072-.414-.01-1.195a3.773,3.773,0,0,1,2.894-3.376l.027-.006a7.155,7.155,0,0,1,2.429-.224,3.161,3.161,0,0,1,2.127,1.087c.232.293.4.639.654.909a4.268,4.268,0,0,0,1.746.866,5.268,5.268,0,0,1,1.914,1.1,2.855,2.855,0,0,1,.925,1.962,1.9,1.9,0,0,1-1.425,1.93,1,1,0,0,0-.426.184c-.847.657.119,1.345.113,2.084-.006.617-.693,1.019-1.309,1.048a2.484,2.484,0,0,1-2.474-1.966,5.179,5.179,0,0,1,.039-1.538c.069-.585-1.191-1.964-.359-.953a1.449,1.449,0,0,1,.318.67c.139.807-.6,1.079-1.059,1.526a1.919,1.919,0,0,0-.465,1.975,2.213,2.213,0,0,1-.4-2.794c.149-.229.341-.428.483-.662.221-.365.282-1.158-.336-1.136C566.546,203.351,566.088,203.718,565.749,203.2Z" transform="translate(-516.345 -191.305)" fill="#2f2e41"/>
    <path id="Path_70" data-name="Path 70" d="M246.929,673.483s-5.443-10.046-18.605-5.7Z" transform="translate(-228.324 -597.313)" fill="#e1cdcd"/>
    <path id="Path_71" data-name="Path 71" d="M353.5,592.369s-6.731-8.556,2.984-19.229Z" transform="translate(-334.568 -516.445)" fill="#e1cdcd"/>
  </g>
</svg>
