<svg xmlns="http://www.w3.org/2000/svg" xmlns:xlink="http://www.w3.org/1999/xlink" width="80" height="80" viewBox="0 0 80 80">
  <defs>
    <clipPath id="clip-path">
      <rect id="Rectangle_332" data-name="Rectangle 332" width="80" height="80" transform="translate(410 1750)" fill="rgba(255,255,255,0)"/>
    </clipPath>
  </defs>
  <g id="icon-register" transform="translate(-410 -1750)" clip-path="url(#clip-path)">
    <g id="calendar2-check" transform="translate(410 1750)">
      <path id="Path_42" data-name="Path 42" d="M17.5,0A2.5,2.5,0,0,1,20,2.5V5H60V2.5a2.5,2.5,0,0,1,5,0V5h5A10,10,0,0,1,80,15V70A10,10,0,0,1,70,80H10A10,10,0,0,1,0,70V15A10,10,0,0,1,10,5h5V2.5A2.5,2.5,0,0,1,17.5,0ZM10,10a5,5,0,0,0-5,5V70a5,5,0,0,0,5,5H70a5,5,0,0,0,5-5V15a5,5,0,0,0-5-5Z" fill="#fff" fill-rule="evenodd"/>
      <path id="Path_43" data-name="Path 43" d="M12.5,20A2.5,2.5,0,0,1,15,17.5H65A2.5,2.5,0,0,1,67.5,20v5A2.5,2.5,0,0,1,65,27.5H15A2.5,2.5,0,0,1,12.5,25Z" fill="#fff"/>
      <path id="Path_44" data-name="Path 44" d="M54.27,40.73a2.5,2.5,0,0,1,0,3.54l-15,15a2.5,2.5,0,0,1-3.54,0l-7.5-7.5a2.5,2.5,0,0,1,3.54-3.54l5.73,5.735L50.73,40.73a2.5,2.5,0,0,1,3.54,0Z" fill="#fff" fill-rule="evenodd"/>
    </g>
  </g>
</svg>
