<?xml version="1.0" encoding="utf-8"?>
<!-- Generator: Adobe Illustrator 25.0.0, SVG Export Plug-In . SVG Version: 6.00 Build 0)  -->
<svg version="1.1" id="Capa_1" xmlns="http://www.w3.org/2000/svg" xmlns:xlink="http://www.w3.org/1999/xlink" x="0px" y="0px"
	 viewBox="0 0 512 512" style="enable-background:new 0 0 512 512;" xml:space="preserve">
<style type="text/css">
	.st0{fill:#FFFFFF;}
</style>
<g>
	<path class="st0" d="M164.5,218.7v7.9c0,4.1,3.4,7.5,7.5,7.5s7.5-3.4,7.5-7.5v-7.9c0-4.1-3.4-7.5-7.5-7.5S164.5,214.6,164.5,218.7z
		"/>
	<path class="st0" d="M80.3,185.9c4.1,0,7.5-3.4,7.5-7.5s-3.4-7.5-7.5-7.5H63.7c-4.1,0-7.5,3.4-7.5,7.5s3.4,7.5,7.5,7.5H80.3z"/>
	<path class="st0" d="M280.4,185.9c4.1,0,7.5-3.4,7.5-7.5s-3.4-7.5-7.5-7.5h-16.6c-4.1,0-7.5,3.4-7.5,7.5s3.4,7.5,7.5,7.5H280.4z"/>
	<path class="st0" d="M106.1,357.8c0,4.1,3.4,7.5,7.5,7.5h116.9c4.1,0,7.5-3.4,7.5-7.5s-3.4-7.5-7.5-7.5H113.6
		C109.4,350.3,106.1,353.7,106.1,357.8z"/>
	<path class="st0" d="M113.6,412.5h116.9c4.1,0,7.5-3.4,7.5-7.5s-3.4-7.5-7.5-7.5H113.6c-4.1,0-7.5,3.4-7.5,7.5
		S109.4,412.5,113.6,412.5z"/>
	<path class="st0" d="M113.6,459.6h116.9c4.1,0,7.5-3.4,7.5-7.5s-3.4-7.5-7.5-7.5H113.6c-4.1,0-7.5,3.4-7.5,7.5
		S109.4,459.6,113.6,459.6z"/>
	<path class="st0" d="M410.3,169.5c19.8,0,35.9-16.1,35.9-35.9s-16.1-35.9-35.9-35.9s-35.9,16.1-35.9,35.9S390.5,169.5,410.3,169.5z
		 M410.3,112.7c11.5,0,20.9,9.4,20.9,20.9s-9.4,20.9-20.9,20.9s-20.9-9.4-20.9-20.9S398.8,112.7,410.3,112.7z"/>
	<path class="st0" d="M354.3,54.5c4.1,0,7.5-3.4,7.5-7.5s-3.4-7.5-7.5-7.5h-28.7c-4.1,0-7.5,3.4-7.5,7.5s3.4,7.5,7.5,7.5H354.3z"/>
	<path class="st0" d="M298.7,76.6c0,4.1,3.4,7.5,7.5,7.5h67.5c4.1,0,7.5-3.4,7.5-7.5s-3.4-7.5-7.5-7.5h-67.5
		C302.1,69.1,298.7,72.4,298.7,76.6z"/>
	<path class="st0" d="M207.8,193.2c2.5-3.3,1.9-8-1.3-10.5c-10-7.7-21.9-11.8-34.4-11.8c-31.1,0-56.4,25.3-56.4,56.4
		c0,28.7,23.3,81.7,56.4,81.7s56.4-53,56.4-81.7c0-5.4-0.8-10.7-2.3-15.9c-1.2-4-5.3-6.2-9.3-5.1c-4,1.2-6.3,5.3-5.1,9.3
		c1.1,3.8,1.7,7.7,1.7,11.7c0,24.5-20.5,66.7-41.4,66.7s-41.4-42.2-41.4-66.7c0-22.8,18.6-41.4,41.4-41.4c9.2,0,18,3,25.3,8.6
		C200.6,197.1,205.3,196.5,207.8,193.2L207.8,193.2z"/>
	<path class="st0" d="M474.6,0h-64.3c-4.1,0-7.5,3.4-7.5,7.5s3.4,7.5,7.5,7.5h61.6v255.8l-31.5-32.6c-8.4-8.7-22.3-7.9-29.7,1.2
		l-35.5,43.4c-1.6,1.9-4.4,2.4-6.5,1l-49.8-32V147.2c0-3.2-1-6.3-3.2-8.9L216.2,15h164.1c4.1,0,7.5-3.4,7.5-7.5S384.5,0,380.3,0H203
		c-5.6,0-10,4.7-10,9.8v127.6H37.4c-6.8,0-12.3,5.5-12.3,12.3v287.5c0,4.1,3.4,7.5,7.5,7.5s7.5-3.4,7.5-7.5V152.3
		c0.1,0,260.2,0,263.9,0V497H40.1v-29.9c0-4.1-3.4-7.5-7.5-7.5s-7.5,3.4-7.5,7.5v32.6c0,6.8,5.5,12.3,12.3,12.3h269.4
		c6.8,0,12.3-5.5,12.3-12.3V374.7h155.6c6.8,0,12.3-5.5,12.3-12.3V12.3C486.9,5.5,481.4,0,474.6,0L474.6,0z M208,28.7l87.8,108.6
		H208V28.7z M319,359.7v-89.9l41.6,26.8c8.5,5.5,19.8,3.7,26.2-4.1l35.5-43.4c1.8-2.2,5.2-2.5,7.3-0.3l42.3,43.7v67.3L319,359.7
		L319,359.7z"/>
</g>
</svg>
