<svg xmlns="http://www.w3.org/2000/svg" xmlns:xlink="http://www.w3.org/1999/xlink" width="80" height="80" viewBox="0 0 80 80">
  <defs>
    <clipPath id="clip-path">
      <rect id="Rectangle_332" data-name="Rectangle 332" width="80" height="80" transform="translate(410 1750)" fill="rgba(255,255,255,0)"/>
    </clipPath>
  </defs>
  <g id="icon-invest-destination" transform="translate(-410 -1750)">
    <g id="Mask_Group_2" data-name="Mask Group 2" clip-path="url(#clip-path)">
      <g id="destination" transform="translate(410 1750)">
        <g id="Group_13" data-name="Group 13">
          <g id="Group_12" data-name="Group 12">
            <path id="Path_10" data-name="Path 10" d="M19.651,24.047A19.637,19.637,0,0,0,.036,43.662c0,6.715,3.194,13.935,9.495,21.46.936,1.118,1.869,2.154,2.764,3.1-4.068,1.11-6.51,3.105-6.51,5.433C5.785,77.776,12.929,80,19.651,80s13.866-2.224,13.866-6.346c0-2.326-2.442-4.322-6.507-5.433a63.865,63.865,0,0,0,5.03-5.982,1.173,1.173,0,1,0-1.889-1.392,62.986,62.986,0,0,1-6.06,7,1.173,1.173,0,0,0-.512.508c-1.694,1.665-3.119,2.9-3.928,3.574-.8-.668-2.2-1.886-3.875-3.529a1.173,1.173,0,0,0-.588-.584C9.875,62.473,2.383,53.239,2.383,43.662a17.269,17.269,0,1,1,34.537,0c0,4.158-1.417,8.649-4.211,13.347a1.173,1.173,0,0,0,2.017,1.2c3.013-5.066,4.541-9.96,4.541-14.547A19.637,19.637,0,0,0,19.651,24.047Zm-.718,50.323a1.173,1.173,0,0,0,1.436,0,59.627,59.627,0,0,0,4.717-4.2c3.957.807,6.084,2.36,6.084,3.479,0,.835-1.145,1.82-2.987,2.571a23.387,23.387,0,0,1-8.532,1.428c-7.032,0-11.52-2.369-11.52-4,0-1.12,2.128-2.673,6.087-3.48A59.618,59.618,0,0,0,18.933,74.371Z" fill="#fff"/>
          </g>
        </g>
        <g id="Group_15" data-name="Group 15">
          <g id="Group_14" data-name="Group 14">
            <path id="Path_11" data-name="Path 11" d="M19.651,35.134a8.459,8.459,0,0,0-5.1,1.694,1.173,1.173,0,0,0,1.4,1.879,6.166,6.166,0,1,1-2.246,3.246,1.173,1.173,0,1,0-2.255-.647,8.53,8.53,0,1,0,8.2-6.172Z" fill="#fff"/>
          </g>
        </g>
        <g id="Group_17" data-name="Group 17">
          <g id="Group_16" data-name="Group 16">
            <path id="Path_12" data-name="Path 12" d="M70.775,34.081c.6-.64,1.212-1.33,1.828-2.067,4.884-5.833,7.36-11.441,7.36-16.668A15.349,15.349,0,0,0,50.477,9.373a1.173,1.173,0,0,0,2.161.914,13,13,0,0,1,24.98,5.06c0,9.694-10.178,18.982-13,21.371-.622-.526-1.6-1.386-2.75-2.512a1.172,1.172,0,0,0-.522-.518c-4.05-4.078-9.729-11.089-9.729-18.341a1.173,1.173,0,1,0-2.346,0c0,5.227,2.476,10.834,7.361,16.668.616.736,1.231,1.426,1.827,2.066-3.024.909-4.77,2.455-4.77,4.318,0,1.571,1.274,2.955,3.588,3.9a20.07,20.07,0,0,0,7.341,1.251A20.071,20.071,0,0,0,71.957,42.3c2.313-.943,3.587-2.327,3.587-3.9C75.545,36.539,73.8,34.991,70.775,34.081ZM64.617,41.2c-5.553,0-8.582-1.851-8.582-2.8,0-.62,1.378-1.754,4.32-2.379A45.834,45.834,0,0,0,63.9,39.163a1.173,1.173,0,0,0,1.436,0,45.781,45.781,0,0,0,3.544-3.144,10.753,10.753,0,0,1,3.241,1.173c.675.412,1.079.863,1.079,1.206C73.2,39.349,70.169,41.2,64.617,41.2Z" fill="#fff"/>
          </g>
        </g>
        <g id="Group_19" data-name="Group 19">
          <g id="Group_18" data-name="Group 18">
            <path id="Path_13" data-name="Path 13" d="M64.617,8.521a6.826,6.826,0,1,0,6.826,6.826A6.834,6.834,0,0,0,64.617,8.521Zm0,11.306a4.48,4.48,0,1,1,4.48-4.48A4.485,4.485,0,0,1,64.617,19.827Z" fill="#fff"/>
          </g>
        </g>
        <g id="Group_21" data-name="Group 21">
          <g id="Group_20" data-name="Group 20">
            <path id="Path_14" data-name="Path 14" d="M49.4,37.225h-.536A8.852,8.852,0,0,0,47.7,37.3a1.173,1.173,0,1,0,.31,2.326,6.523,6.523,0,0,1,.856-.056H49.4a1.173,1.173,0,0,0,0-2.346Z" fill="#fff"/>
          </g>
        </g>
        <g id="Group_23" data-name="Group 23">
          <g id="Group_22" data-name="Group 22">
            <path id="Path_15" data-name="Path 15" d="M45.521,72.421h-.005l-1.549.007a1.173,1.173,0,0,0,.005,2.346h.005l1.549-.007a1.173,1.173,0,0,0-.005-2.346Z" fill="#fff"/>
          </g>
        </g>
        <g id="Group_25" data-name="Group 25">
          <g id="Group_24" data-name="Group 24">
            <path id="Path_16" data-name="Path 16" d="M50.792,52.42H49.242a1.173,1.173,0,1,0,0,2.346h1.549a1.173,1.173,0,1,0,0-2.346Z" fill="#fff"/>
          </g>
        </g>
        <g id="Group_27" data-name="Group 27">
          <g id="Group_26" data-name="Group 26">
            <path id="Path_17" data-name="Path 17" d="M44.576,39.615a1.174,1.174,0,0,0-1.658-.067,8.819,8.819,0,0,0-1.182,1.336,1.173,1.173,0,1,0,1.906,1.369,6.483,6.483,0,0,1,.867-.98A1.173,1.173,0,0,0,44.576,39.615Z" fill="#fff"/>
          </g>
        </g>
        <g id="Group_29" data-name="Group 29">
          <g id="Group_28" data-name="Group 28">
            <path id="Path_18" data-name="Path 18" d="M51.719,72.393h-.005l-1.549.007a1.173,1.173,0,0,0,.005,2.346h.005l1.549-.007a1.173,1.173,0,0,0-.005-2.346Z" fill="#fff"/>
          </g>
        </g>
        <g id="Group_31" data-name="Group 31">
          <g id="Group_30" data-name="Group 30">
            <path id="Path_19" data-name="Path 19" d="M39.324,72.449h-.005l-1.549.007a1.173,1.173,0,0,0,.005,2.346h.005l1.549-.007a1.173,1.173,0,0,0-.005-2.346Z" fill="#fff"/>
          </g>
        </g>
        <g id="Group_33" data-name="Group 33">
          <g id="Group_32" data-name="Group 32">
            <path id="Path_20" data-name="Path 20" d="M45.442,51.434a6.474,6.474,0,0,1-1.03-.807,1.173,1.173,0,1,0-1.627,1.691,8.817,8.817,0,0,0,1.4,1.1,1.173,1.173,0,1,0,1.252-1.984Z" fill="#fff"/>
          </g>
        </g>
        <g id="Group_35" data-name="Group 35">
          <g id="Group_34" data-name="Group 34">
            <path id="Path_21" data-name="Path 21" d="M42.558,47.232A6.483,6.483,0,0,1,42.44,46v-.065a1.173,1.173,0,0,0-1.159-1.187h-.014a1.173,1.173,0,0,0-1.173,1.16V46a8.833,8.833,0,0,0,.162,1.685,1.173,1.173,0,0,0,2.3-.449Z" fill="#fff"/>
          </g>
        </g>
        <g id="Group_37" data-name="Group 37">
          <g id="Group_36" data-name="Group 36">
            <path id="Path_22" data-name="Path 22" d="M56.99,52.42H55.44a1.173,1.173,0,0,0,0,2.346H56.99a1.173,1.173,0,1,0,0-2.346Z" fill="#fff"/>
          </g>
        </g>
        <g id="Group_39" data-name="Group 39">
          <g id="Group_38" data-name="Group 38">
            <path id="Path_23" data-name="Path 23" d="M75.824,54.809a11.17,11.17,0,0,0-1.436-.963,1.173,1.173,0,0,0-1.152,2.044,8.848,8.848,0,0,1,1.134.76,1.173,1.173,0,0,0,1.454-1.842Z" fill="#fff"/>
          </g>
        </g>
        <g id="Group_41" data-name="Group 41">
          <g id="Group_40" data-name="Group 40">
            <path id="Path_24" data-name="Path 24" d="M71.47,73.234a1.174,1.174,0,0,0-1.323-1,8.827,8.827,0,0,1-1.17.083h-.22a1.173,1.173,0,0,0,.005,2.346h.225a11.2,11.2,0,0,0,1.48-.1A1.173,1.173,0,0,0,71.47,73.234Z" fill="#fff"/>
          </g>
        </g>
        <g id="Group_43" data-name="Group 43">
          <g id="Group_42" data-name="Group 42">
            <path id="Path_25" data-name="Path 25" d="M76.647,69.935a1.173,1.173,0,0,0-1.658-.04,8.862,8.862,0,0,1-1.059.863,1.173,1.173,0,1,0,1.337,1.928,11.221,11.221,0,0,0,1.341-1.092A1.173,1.173,0,0,0,76.647,69.935Z" fill="#fff"/>
          </g>
        </g>
        <g id="Group_45" data-name="Group 45">
          <g id="Group_44" data-name="Group 44">
            <path id="Path_26" data-name="Path 26" d="M78.93,64.237a1.173,1.173,0,0,0-1.37.936A8.787,8.787,0,0,1,77.2,66.49a1.173,1.173,0,1,0,2.21.788,11.125,11.125,0,0,0,.452-1.671A1.174,1.174,0,0,0,78.93,64.237Z" fill="#fff"/>
          </g>
        </g>
        <g id="Group_47" data-name="Group 47">
          <g id="Group_46" data-name="Group 46">
            <path id="Path_27" data-name="Path 27" d="M79.627,60.466a11.077,11.077,0,0,0-.607-1.623,1.173,1.173,0,1,0-2.126.992,8.718,8.718,0,0,1,.478,1.278,1.173,1.173,0,1,0,2.255-.647Z" fill="#fff"/>
          </g>
        </g>
        <g id="Group_49" data-name="Group 49">
          <g id="Group_48" data-name="Group 48">
            <path id="Path_28" data-name="Path 28" d="M63.187,52.42H61.638a1.173,1.173,0,1,0,0,2.346h1.549a1.173,1.173,0,0,0,0-2.346Z" fill="#fff"/>
          </g>
        </g>
        <g id="Group_51" data-name="Group 51">
          <g id="Group_50" data-name="Group 50">
            <path id="Path_29" data-name="Path 29" d="M57.917,72.365h-.005l-1.549.007a1.173,1.173,0,0,0,.005,2.346h.005l1.549-.007a1.173,1.173,0,0,0-.005-2.346Z" fill="#fff"/>
          </g>
        </g>
        <g id="Group_53" data-name="Group 53">
          <g id="Group_52" data-name="Group 52">
            <path id="Path_30" data-name="Path 30" d="M69.437,52.432c-.166-.007-.334-.011-.5-.011h-1.1a1.173,1.173,0,0,0,0,2.346h1.1q.2,0,.4.009h.053a1.173,1.173,0,0,0,.051-2.345Z" fill="#fff"/>
          </g>
        </g>
        <g id="Group_55" data-name="Group 55">
          <g id="Group_54" data-name="Group 54">
            <path id="Path_31" data-name="Path 31" d="M64.115,72.337h-.005l-1.549.007a1.173,1.173,0,0,0,.005,2.346h.005l1.549-.007a1.173,1.173,0,0,0-.005-2.346Z" fill="#fff"/>
          </g>
        </g>
      </g>
    </g>
  </g>
</svg>
