<svg id="Capa_1" enable-background="new 0 0 511.999 511.999" height="512" viewBox="0 0 511.999 511.999" width="512" xmlns="http://www.w3.org/2000/svg"><g><path d="m164.534 218.725v7.933c0 4.143 3.357 7.5 7.5 7.5s7.5-3.357 7.5-7.5v-7.933c0-4.143-3.357-7.5-7.5-7.5s-7.5 3.357-7.5 7.5z"/><path d="m80.281 185.938c4.143 0 7.5-3.357 7.5-7.5s-3.357-7.5-7.5-7.5h-16.617c-4.143 0-7.5 3.357-7.5 7.5s3.357 7.5 7.5 7.5z"/><path d="m280.405 185.938c4.143 0 7.5-3.357 7.5-7.5s-3.357-7.5-7.5-7.5h-16.618c-4.143 0-7.5 3.357-7.5 7.5s3.357 7.5 7.5 7.5z"/><path d="m106.084 357.801c0 4.143 3.357 7.5 7.5 7.5h116.901c4.143 0 7.5-3.357 7.5-7.5s-3.357-7.5-7.5-7.5h-116.901c-4.143 0-7.5 3.357-7.5 7.5z"/><path d="m113.584 412.45h116.901c4.143 0 7.5-3.357 7.5-7.5s-3.357-7.5-7.5-7.5h-116.901c-4.143 0-7.5 3.357-7.5 7.5s3.357 7.5 7.5 7.5z"/><path d="m113.584 459.601h116.901c4.143 0 7.5-3.357 7.5-7.5s-3.357-7.5-7.5-7.5h-116.901c-4.143 0-7.5 3.357-7.5 7.5s3.357 7.5 7.5 7.5z"/><path d="m410.315 169.53c19.814 0 35.936-16.121 35.936-35.936s-16.121-35.936-35.936-35.936-35.936 16.121-35.936 35.936 16.122 35.936 35.936 35.936zm0-56.871c11.544 0 20.936 9.392 20.936 20.936s-9.392 20.936-20.936 20.936-20.936-9.392-20.936-20.936 9.392-20.936 20.936-20.936z"/><path d="m354.298 54.485c4.143 0 7.5-3.357 7.5-7.5s-3.357-7.5-7.5-7.5h-28.667c-4.143 0-7.5 3.357-7.5 7.5s3.357 7.5 7.5 7.5z"/><path d="m298.717 76.579c0 4.143 3.357 7.5 7.5 7.5h67.495c4.143 0 7.5-3.357 7.5-7.5s-3.357-7.5-7.5-7.5h-67.495c-4.143 0-7.5 3.358-7.5 7.5z"/><path d="m207.833 193.217c2.532-3.277 1.929-7.987-1.349-10.521-9.954-7.692-21.867-11.759-34.45-11.759-31.095 0-56.392 25.297-56.392 56.392 0 28.684 23.255 81.66 56.392 81.66s56.392-52.977 56.392-81.66c0-5.37-.768-10.712-2.281-15.876-1.165-3.974-5.33-6.249-9.308-5.087-3.975 1.165-6.252 5.332-5.087 9.308 1.112 3.792 1.676 7.714 1.676 11.655 0 24.482-20.453 66.66-41.392 66.66s-41.392-42.178-41.392-66.66c0-22.823 18.568-41.392 41.392-41.392 9.233 0 17.975 2.983 25.278 8.628 3.277 2.532 7.988 1.931 10.521-1.348z"/><path d="m474.64 0h-64.324c-4.143 0-7.5 3.357-7.5 7.5s3.357 7.5 7.5 7.5h61.604v255.781l-31.479-32.552c-8.388-8.675-22.281-7.871-29.73 1.234l-35.504 43.393c-1.583 1.934-4.36 2.373-6.462 1.022l-49.756-31.975v-104.704c0-3.175-1.045-6.284-3.165-8.925l-99.616-123.274h164.121c4.143 0 7.5-3.357 7.5-7.5s-3.357-7.5-7.5-7.5h-177.3c-5.621 0-10.02 4.685-10.02 9.76v127.579h-155.65c-6.771 0-12.28 5.505-12.28 12.271v287.497c0 4.143 3.357 7.5 7.5 7.5s7.5-3.357 7.5-7.5v-284.768c.083 0 260.166.001 263.91.001v344.659h-263.91v-29.905c0-4.143-3.357-7.5-7.5-7.5s-7.5 3.357-7.5 7.5v32.625c0 6.771 5.509 12.28 12.28 12.28h269.36c6.766 0 12.27-5.509 12.27-12.28v-125.06h155.65c6.771 0 12.28-5.504 12.28-12.27v-350.11c.001-6.77-5.508-12.279-12.279-12.279zm-266.63 28.721 87.77 108.618h-87.77zm110.979 330.938v-89.925l41.646 26.763c8.499 5.461 19.757 3.708 26.181-4.144l35.504-43.393c1.822-2.225 5.242-2.474 7.338-.305l42.262 43.704v67.299h-152.931z"/></g></svg>