<svg xmlns="http://www.w3.org/2000/svg" width="80" height="80.168" viewBox="0 0 80 80.168">
  <g id="icon-invest-income" transform="translate(-1 -0.87)">
    <path id="Path_93" data-name="Path 93" d="M25,39.6l2.581.04a17.986,17.986,0,0,1,.2-2.41l-2.552-.386A20.57,20.57,0,0,0,25,39.6Z" transform="translate(6.968 10.445)" fill="#fff"/>
    <path id="Path_94" data-name="Path 94" d="M34.146,26.223a20.308,20.308,0,0,0-8.485,11.253l2.472.738a17.73,17.73,0,0,1,7.409-9.821l1.645-1.057-1.395-2.17Z" transform="translate(7.16 7.054)" fill="#fff"/>
    <path id="Path_95" data-name="Path 95" d="M59.6,38.981l-2.581.048,0,.288a17.767,17.767,0,0,1-.117,2.045l2.564.3a20.555,20.555,0,0,0,.134-2.339Z" transform="translate(16.232 11.064)" fill="#fff"/>
    <path id="Path_96" data-name="Path 96" d="M47.677,55.021l.834,2.443A20.313,20.313,0,0,0,61.6,43.447l-2.494-.666a17.734,17.734,0,0,1-11.432,12.24Z" transform="translate(13.551 12.168)" fill="#fff"/>
    <path id="Path_97" data-name="Path 97" d="M69.292,28.936l-3.674-2.361a3.852,3.852,0,0,0-.907-7.423l5.966-5.966v-.534A5.683,5.683,0,0,0,65.706,7.02l-2.375-.3L64.569,2.7,57.257.87,53.965,5.257,51.916,2.184,43.183,3.931l.946,2.836L42.1,7.02a5.683,5.683,0,0,0-4.97,5.631v.534L43.1,19.151a3.852,3.852,0,0,0-.907,7.423l-3.674,2.361A25.386,25.386,0,0,0,26.806,50.381c0,.757.045,1.515.111,2.27H16.484V42.328H7.452A6.459,6.459,0,0,0,1,48.78V74.586a6.459,6.459,0,0,0,6.452,6.452H52.613V75.876H55.5A25.495,25.495,0,0,0,69.292,28.936ZM65.386,9.58a3.1,3.1,0,0,1,2.671,2.575L61.111,19.1h-1.59L62.56,9.226ZM50.729,5.053l3.114,4.668,4.452-5.935,3.009.752L56.822,19.1H50.963L46.557,5.888ZM42.421,9.58l2.541-.317,3.28,9.84H46.7L39.75,12.155A3.1,3.1,0,0,1,42.421,9.58Zm1.16,12.1H64.226a1.29,1.29,0,0,1,0,2.581H43.581a1.29,1.29,0,0,1,0-2.581ZM7.452,44.909H13.9v7.742H7.452a3.871,3.871,0,0,1,0-7.742Zm0,33.548a3.876,3.876,0,0,1-3.871-3.871V53.938a6.417,6.417,0,0,0,3.871,1.293H13.51a14.16,14.16,0,0,0,0,23.226ZM21.645,55.231A11.613,11.613,0,1,1,10.032,66.844,11.626,11.626,0,0,1,21.645,55.231ZM50.032,78.457H29.781a14.16,14.16,0,0,0,0-23.226H50.032Zm2.581-23.773a6.387,6.387,0,0,0,2.581.547,3.871,3.871,0,0,1,0,7.742H52.613ZM55.5,73.3H52.613V65.554h2.581a6.452,6.452,0,1,0,0-12.9,3.871,3.871,0,1,1,0-7.742h3.871V48.78h2.581V42.328H56.484V39.747H53.9v2.711a6.463,6.463,0,0,0-5.161,6.321,6.385,6.385,0,0,0,1.324,3.871H29.512c-.074-.754-.125-1.511-.125-2.27A22.822,22.822,0,0,1,39.91,31.106l6.63-4.262H61.267l6.63,4.262A22.915,22.915,0,0,1,55.5,73.3Z" transform="translate(0)" fill="#fff"/>
    <path id="Path_98" data-name="Path 98" d="M16.871,63.065h2.581V60.484a3.871,3.871,0,1,0,0-7.742H16.871a1.29,1.29,0,1,1,0-2.581h3.871v1.29h2.581V47.581H19.452V45H16.871v2.581a3.871,3.871,0,1,0,0,7.742h2.581a1.29,1.29,0,0,1,0,2.581H15.581v-1.29H13v3.871h3.871Z" transform="translate(3.484 12.812)" fill="#fff"/>
    <path id="Path_99" data-name="Path 99" d="M35.871,51.452h2.581V45H32v2.581h3.871Z" transform="translate(9 12.812)" fill="#fff"/>
    <path id="Path_100" data-name="Path 100" d="M38.452,54H35.871v3.871H32v2.581h6.452Z" transform="translate(9 15.425)" fill="#fff"/>
  </g>
</svg>
