<svg xmlns="http://www.w3.org/2000/svg" xmlns:xlink="http://www.w3.org/1999/xlink" width="80" height="80" viewBox="0 0 80 80">
  <defs>
    <clipPath id="clip-path">
      <rect id="Rectangle_362" data-name="Rectangle 362" width="80" height="80" transform="translate(20 20)" fill="#fff" stroke="#707070" stroke-width="1"/>
    </clipPath>
  </defs>
  <g id="institution" transform="translate(-20 -20)" clip-path="url(#clip-path)">
    <g id="institution-2" data-name="institution" transform="translate(25.996 20)">
      <path id="Path_122" data-name="Path 122" d="M66.667,60V49.333A1.333,1.333,0,0,0,65.333,48V34.667h1.333a1.333,1.333,0,0,0,1.2-1.929l-2.533-5.052V22.667c0-.028-.015-.052-.016-.08a1.348,1.348,0,0,0-.072-.355,1.241,1.241,0,0,0-.044-.125,1.35,1.35,0,0,0-.252-.375l-.008-.009-5.333-5.333A1.333,1.333,0,0,0,58.667,16H48V8a1.333,1.333,0,0,0-1.333-1.333H41.333V1.333a1.333,1.333,0,0,0-2.667,0V6.667H33.333A1.333,1.333,0,0,0,32,8v8H21.333a1.334,1.334,0,0,0-.943.391l-5.333,5.333-.008.009a1.35,1.35,0,0,0-.252.375,1.24,1.24,0,0,0-.044.125,1.338,1.338,0,0,0-.072.354c0,.029-.016.053-.016.081v5.019l-2.527,5.052a1.333,1.333,0,0,0,1.195,1.928h1.333V48H13.333A1.333,1.333,0,0,0,12,49.333v5.252l-.229.081H1.333A1.333,1.333,0,0,0,0,56V78.667A1.333,1.333,0,0,0,1.333,80H12a1.333,1.333,0,0,0,1.333-1.333V74.934l26.969,4.9a4.008,4.008,0,0,0,2.3-.266L63.547,70.5a6.642,6.642,0,0,0,3.081-10.313A1.357,1.357,0,0,0,66.667,60Zm-56,13.333v4h-8v-20h8Zm44-54.667h3.448l2.667,2.667H54.667Zm0,5.333h8v2.667h-8Zm0,5.333h8.509L64.509,32H54.667Zm0,5.333h8V40h-8Zm0,8h8V48H60V45.333H57.333V48H54.667Zm9.333,8v2.667H50.667V50.667ZM64,56v2.133a6.573,6.573,0,0,0-4.341-.333.72.72,0,0,0-.112.035l-2.309.832H50.667V56ZM34.667,9.333H45.333V16h-4V12H38.667v4h-4ZM28,33.333V18.667H52V48H46.667V44a1.333,1.333,0,0,0-1.333-1.333H34.667A1.333,1.333,0,0,0,33.333,44v4H28Zm20,28V62l-4.645,1.673a1.334,1.334,0,0,1-1.1-.088l-4.042-2.252ZM44,48H41.333V45.333H44Zm.392,10.667A6,6,0,0,0,46.3,56H48v2.667Zm3.156-5.333H46.6a5.961,5.961,0,0,0-.949-2.667H48v2.667Zm-8.882-8V48H36V45.333ZM21.885,18.667h3.448v2.667H19.219ZM17.333,24h8v2.667h-8Zm-.509,5.333h8.509V32H15.491Zm3.176,16V48H17.333V42.667h8V48H22.667V45.333ZM17.333,40V34.667h8V40ZM14.667,50.667h8.3l-7.576,2.705a1.32,1.32,0,0,0-.195-.038h-.533ZM62.577,68.023l-21.032,9.1a1.335,1.335,0,0,1-.768.089L13.333,72.22V56.94L30.9,50.667h9.77a3.333,3.333,0,1,1,0,6.667h-10a1.333,1.333,0,0,0-.646,2.5l10.933,6.079a3.987,3.987,0,0,0,3.3.266l16.133-5.813a3.982,3.982,0,0,1,4.949,3.865,4.029,4.029,0,0,1-2.756,3.794Zm0,0" fill="#b02a30"/>
      <path id="Path_123" data-name="Path 123" d="M30.667,21.333h2.667V24H30.667Zm0,0" fill="#b02a30"/>
      <path id="Path_124" data-name="Path 124" d="M36,21.333h2.667V24H36Zm0,0" fill="#b02a30"/>
      <path id="Path_125" data-name="Path 125" d="M41.333,21.333H44V24H41.333Zm0,0" fill="#b02a30"/>
      <path id="Path_126" data-name="Path 126" d="M46.667,21.333h2.667V24H46.667Zm0,0" fill="#b02a30"/>
      <path id="Path_127" data-name="Path 127" d="M30.667,26.667h2.667v2.667H30.667Zm0,0" fill="#b02a30"/>
      <path id="Path_128" data-name="Path 128" d="M36,26.667h2.667v2.667H36Zm0,0" fill="#b02a30"/>
      <path id="Path_129" data-name="Path 129" d="M41.333,26.667H44v2.667H41.333Zm0,0" fill="#b02a30"/>
      <path id="Path_130" data-name="Path 130" d="M46.667,26.667h2.667v2.667H46.667Zm0,0" fill="#b02a30"/>
      <path id="Path_131" data-name="Path 131" d="M30.667,32h2.667v2.667H30.667Zm0,0" fill="#b02a30"/>
      <path id="Path_132" data-name="Path 132" d="M36,32h2.667v2.667H36Zm0,0" fill="#b02a30"/>
      <path id="Path_133" data-name="Path 133" d="M41.333,32H44v2.667H41.333Zm0,0" fill="#b02a30"/>
      <path id="Path_134" data-name="Path 134" d="M46.667,32h2.667v2.667H46.667Zm0,0" fill="#b02a30"/>
      <path id="Path_135" data-name="Path 135" d="M30.667,37.333h2.667V40H30.667Zm0,0" fill="#b02a30"/>
      <path id="Path_136" data-name="Path 136" d="M36,37.333h2.667V40H36Zm0,0" fill="#b02a30"/>
      <path id="Path_137" data-name="Path 137" d="M41.333,37.333H44V40H41.333Zm0,0" fill="#b02a30"/>
      <path id="Path_138" data-name="Path 138" d="M46.667,37.333h2.667V40H46.667Zm0,0" fill="#b02a30"/>
    </g>
  </g>
</svg>
