<svg xmlns="http://www.w3.org/2000/svg" xmlns:xlink="http://www.w3.org/1999/xlink" width="80" height="80" viewBox="0 0 80 80">
  <defs>
    <clipPath id="clip-path">
      <rect id="Rectangle_363" data-name="Rectangle 363" width="80" height="80" transform="translate(20 20)" fill="#fff" stroke="#707070" stroke-width="1"/>
    </clipPath>
  </defs>
  <g id="marketing" transform="translate(-20 -20)" clip-path="url(#clip-path)">
    <g id="marketing-2" data-name="marketing" transform="translate(17.333 17.333)">
      <path id="Path_139" data-name="Path 139" d="M81.333,2.667H4A1.333,1.333,0,0,0,2.667,4v8A1.333,1.333,0,0,0,4,13.333H6.667v56H4a1.333,1.333,0,0,0-1.333,1.333V76A1.333,1.333,0,0,0,4,77.333H36v1.333a4,4,0,0,0,4,4h5.333a4,4,0,0,0,4-4V77.333h32A1.333,1.333,0,0,0,82.667,76V70.667a1.333,1.333,0,0,0-1.333-1.333H78.667v-56h2.667A1.333,1.333,0,0,0,82.667,12V4A1.333,1.333,0,0,0,81.333,2.667Zm-34.667,76A1.335,1.335,0,0,1,45.333,80H40a1.335,1.335,0,0,1-1.333-1.333V77.333h8Zm33.333-4H5.333V72H80Zm-4-5.333H9.333v-56H76Zm4-58.667H5.333V5.333H80Z" fill="#b02a30"/>
      <path id="Path_140" data-name="Path 140" d="M65.333,52a3.967,3.967,0,0,0,.289,1.472l-5.009,4.388a3.922,3.922,0,0,0-4.161.145L51.8,54.518a3.945,3.945,0,0,0,.2-1.184,4,4,0,1,0-7.711,1.472L39.28,59.194a3.95,3.95,0,0,0-1.947-.528,3.993,3.993,0,0,0-3.754,2.667H22.667V64H33.579a3.989,3.989,0,1,0,7.465-2.806l5.009-4.388a3.922,3.922,0,0,0,4.161-.145l4.652,3.489a3.945,3.945,0,0,0-.2,1.184,4,4,0,1,0,7.711-1.473l5.009-4.388A3.95,3.95,0,0,0,69.333,56a4,4,0,1,0-4-4Zm-28,12a1.333,1.333,0,1,1,1.333-1.333A1.335,1.335,0,0,1,37.333,64ZM48,54.667a1.333,1.333,0,1,1,1.333-1.333A1.335,1.335,0,0,1,48,54.667Zm10.667,8A1.333,1.333,0,1,1,60,61.333,1.335,1.335,0,0,1,58.667,62.667ZM70.667,52a1.333,1.333,0,1,1-1.333-1.333A1.335,1.335,0,0,1,70.667,52Z" fill="#b02a30"/>
      <path id="Path_141" data-name="Path 141" d="M26.667,40a9.333,9.333,0,1,0-9.333-9.333A9.344,9.344,0,0,0,26.667,40ZM28,24.135a6.624,6.624,0,0,1,2.337.976L28,27.448Zm-2.667,0v6.532a1.333,1.333,0,0,0,2.276.943L32.223,27a6.661,6.661,0,1,1-6.889-2.861Z" fill="#b02a30"/>
      <path id="Path_142" data-name="Path 142" d="M26.667,45.333a14.667,14.667,0,0,0,0-29.333v2.667a12,12,0,1,1-12,12H12A14.683,14.683,0,0,0,26.667,45.333Z" fill="#b02a30"/>
      <path id="Path_143" data-name="Path 143" d="M52,42.667H72V40H69.333V18.667A1.333,1.333,0,0,0,68,17.333H62.667a1.333,1.333,0,0,0-1.333,1.333V28H58.667V25.333A1.333,1.333,0,0,0,57.333,24H52a1.333,1.333,0,0,0-1.333,1.333V32h-4a1.333,1.333,0,0,0-1.333,1.333V40H42.667v2.667H52ZM64,20h2.667V40H64V20ZM61.333,30.667V40H58.667V30.667Zm-8-4H56V40H53.333V26.667Zm-5.333,8h2.667V40H48Z" fill="#b02a30"/>
      <path id="Path_144" data-name="Path 144" d="M17.333,61.333H20V64H17.333Z" fill="#b02a30"/>
      <path id="Path_145" data-name="Path 145" d="M12,61.333h2.667V64H12Z" fill="#b02a30"/>
    </g>
  </g>
</svg>
