<svg xmlns="http://www.w3.org/2000/svg" xmlns:xlink="http://www.w3.org/1999/xlink" width="80" height="80" viewBox="0 0 80 80">
  <defs>
    <clipPath id="clip-path">
      <rect id="Rectangle_361" data-name="Rectangle 361" width="80" height="80" transform="translate(20 20)" fill="#fff" stroke="#707070" stroke-width="1"/>
    </clipPath>
  </defs>
  <g id="kukp" transform="translate(-20 -20)" clip-path="url(#clip-path)">
    <g id="monetary" transform="translate(18.71 18.71)">
      <path id="Path_117" data-name="Path 117" d="M28.387,55.361a5.04,5.04,0,0,0-3.871-4.889v-2.73H21.935v2.732a5.031,5.031,0,0,0-.426,9.67l2.614.872a2.459,2.459,0,0,1-.777,4.791H23.1a2.461,2.461,0,0,1-2.459-2.458V61.935H18.065v1.413a5.04,5.04,0,0,0,3.871,4.889v2.73h2.581V68.236a5.031,5.031,0,0,0,.426-9.67l-2.614-.872A2.458,2.458,0,0,1,23.1,52.9h.243a2.461,2.461,0,0,1,2.459,2.458v.123Z" fill="#b02a30"/>
      <path id="Path_118" data-name="Path 118" d="M23.226,42.581A16.774,16.774,0,1,0,40,59.355,16.794,16.794,0,0,0,23.226,42.581Zm0,30.968A14.194,14.194,0,1,1,37.419,59.355,14.21,14.21,0,0,1,23.226,73.548Z" fill="#b02a30"/>
      <path id="Path_119" data-name="Path 119" d="M70.968,60.645a5.093,5.093,0,0,0-2.577.716,5.1,5.1,0,0,0-2.585-.716,5.161,5.161,0,0,0,0,10.323,5.1,5.1,0,0,0,2.585-.716,5.093,5.093,0,0,0,2.577.716,5.161,5.161,0,0,0,0-10.323Zm-7.742,5.161a2.583,2.583,0,0,1,2.581-2.581,2.419,2.419,0,0,1,.665.1,4.97,4.97,0,0,0,0,4.965,2.419,2.419,0,0,1-.665.1A2.583,2.583,0,0,1,63.226,65.806Zm7.742,2.581a2.581,2.581,0,1,1,2.581-2.581A2.583,2.583,0,0,1,70.968,68.387Z" fill="#b02a30"/>
      <path id="Path_120" data-name="Path 120" d="M81.29,29.677V22.626l-23-19.37a8.363,8.363,0,0,0-10.772,0l-23,19.37v7.052H27.1v8.1A21.929,21.929,0,1,0,37.332,76.129H77.419a3.876,3.876,0,0,0,3.871-3.871V46.452a3.866,3.866,0,0,0-2.581-3.634V29.677ZM27.1,27.1V24.516H78.71V27.1ZM77.419,45.161a1.292,1.292,0,0,1,1.29,1.29v3.871H43.192a21.959,21.959,0,0,0-3.272-5.161ZM44.19,52.9H78.71v2.581H44.8A21.7,21.7,0,0,0,44.19,52.9Zm3.552-23.226v12.9H37.419v-12.9Zm2.581,12.9v-12.9h5.161v12.9Zm7.742,0v-12.9H68.387v12.9ZM37.044,21.935,51.608,9.486a2.178,2.178,0,0,1,2.556-.034l14.72,12.483ZM49.179,5.23a5.935,5.935,0,0,1,7.446,0L76.465,21.935H72.874L55.8,7.454a4.765,4.765,0,0,0-5.832.04L33.072,21.935h-3.73Zm-19.5,24.448h5.161v11.1a21.8,21.8,0,0,0-5.161-2.388ZM3.871,59.355A19.355,19.355,0,1,1,23.226,78.71,19.377,19.377,0,0,1,3.871,59.355ZM77.419,73.548H39.92a21.825,21.825,0,0,0,5.241-14.194c0-.436-.04-.861-.066-1.29H78.71V72.258A1.292,1.292,0,0,1,77.419,73.548Zm-1.29-30.968H70.968v-12.9h5.161Z" fill="#b02a30"/>
      <path id="Path_121" data-name="Path 121" d="M49.032,15.484A3.871,3.871,0,1,0,52.9,11.613,3.876,3.876,0,0,0,49.032,15.484Zm5.161,0a1.29,1.29,0,1,1-1.29-1.29A1.292,1.292,0,0,1,54.194,15.484Z" fill="#b02a30"/>
    </g>
  </g>
</svg>
