<svg xmlns="http://www.w3.org/2000/svg" xmlns:xlink="http://www.w3.org/1999/xlink" width="80" height="80" viewBox="0 0 80 80">
  <defs>
    <clipPath id="clip-path">
      <rect id="Rectangle_364" data-name="Rectangle 364" width="80" height="80" transform="translate(20 20)" fill="#fff" stroke="#707070" stroke-width="1"/>
    </clipPath>
  </defs>
  <g id="destination" transform="translate(-20 -20)" clip-path="url(#clip-path)">
    <g id="destination-2" data-name="destination" transform="translate(20 20)">
      <g id="Group_83" data-name="Group 83">
        <g id="Group_82" data-name="Group 82">
          <path id="Path_146" data-name="Path 146" d="M19.651,24.047A19.637,19.637,0,0,0,.036,43.662c0,6.715,3.194,13.935,9.495,21.46.936,1.118,1.869,2.154,2.764,3.1-4.068,1.11-6.51,3.105-6.51,5.433C5.785,77.776,12.929,80,19.651,80s13.866-2.224,13.866-6.346c0-2.326-2.442-4.322-6.507-5.433a63.865,63.865,0,0,0,5.03-5.982,1.173,1.173,0,1,0-1.889-1.392,62.986,62.986,0,0,1-6.06,7,1.173,1.173,0,0,0-.512.508c-1.694,1.665-3.119,2.9-3.928,3.574-.8-.668-2.2-1.886-3.875-3.529a1.173,1.173,0,0,0-.588-.584C9.875,62.473,2.383,53.239,2.383,43.662a17.269,17.269,0,1,1,34.537,0c0,4.158-1.417,8.649-4.211,13.347a1.173,1.173,0,0,0,2.017,1.2c3.013-5.066,4.541-9.96,4.541-14.547A19.637,19.637,0,0,0,19.651,24.047Zm-.718,50.323a1.173,1.173,0,0,0,1.436,0,59.627,59.627,0,0,0,4.717-4.2c3.957.807,6.084,2.36,6.084,3.479,0,.835-1.145,1.82-2.987,2.571a23.387,23.387,0,0,1-8.532,1.428c-7.032,0-11.52-2.369-11.52-4,0-1.12,2.128-2.673,6.087-3.48A59.618,59.618,0,0,0,18.933,74.371Z" fill="#b02a30"/>
        </g>
      </g>
      <g id="Group_85" data-name="Group 85">
        <g id="Group_84" data-name="Group 84">
          <path id="Path_147" data-name="Path 147" d="M19.651,35.134a8.459,8.459,0,0,0-5.1,1.694,1.173,1.173,0,0,0,1.4,1.879,6.166,6.166,0,1,1-2.246,3.246,1.173,1.173,0,1,0-2.255-.647,8.53,8.53,0,1,0,8.2-6.172Z" fill="#b02a30"/>
        </g>
      </g>
      <g id="Group_87" data-name="Group 87">
        <g id="Group_86" data-name="Group 86">
          <path id="Path_148" data-name="Path 148" d="M70.775,34.081c.6-.64,1.212-1.33,1.828-2.067,4.884-5.833,7.36-11.441,7.36-16.668A15.349,15.349,0,0,0,50.477,9.373a1.173,1.173,0,0,0,2.161.914,13,13,0,0,1,24.98,5.06c0,9.694-10.178,18.982-13,21.371-.622-.526-1.6-1.386-2.75-2.512a1.172,1.172,0,0,0-.522-.518c-4.05-4.078-9.729-11.089-9.729-18.341a1.173,1.173,0,1,0-2.346,0c0,5.227,2.476,10.834,7.361,16.668.616.736,1.231,1.426,1.827,2.066-3.024.909-4.77,2.455-4.77,4.318,0,1.571,1.274,2.955,3.588,3.9a20.07,20.07,0,0,0,7.341,1.251A20.071,20.071,0,0,0,71.957,42.3c2.313-.943,3.587-2.327,3.587-3.9C75.545,36.539,73.8,34.991,70.775,34.081ZM64.617,41.2c-5.553,0-8.582-1.851-8.582-2.8,0-.62,1.378-1.754,4.32-2.379A45.834,45.834,0,0,0,63.9,39.163a1.173,1.173,0,0,0,1.436,0,45.781,45.781,0,0,0,3.544-3.144,10.753,10.753,0,0,1,3.241,1.173c.675.412,1.079.863,1.079,1.206C73.2,39.349,70.169,41.2,64.617,41.2Z" fill="#b02a30"/>
        </g>
      </g>
      <g id="Group_89" data-name="Group 89">
        <g id="Group_88" data-name="Group 88">
          <path id="Path_149" data-name="Path 149" d="M64.617,8.521a6.826,6.826,0,1,0,6.826,6.826A6.834,6.834,0,0,0,64.617,8.521Zm0,11.306a4.48,4.48,0,1,1,4.48-4.48A4.485,4.485,0,0,1,64.617,19.827Z" fill="#b02a30"/>
        </g>
      </g>
      <g id="Group_91" data-name="Group 91">
        <g id="Group_90" data-name="Group 90">
          <path id="Path_150" data-name="Path 150" d="M49.4,37.225h-.536A8.852,8.852,0,0,0,47.7,37.3a1.173,1.173,0,1,0,.31,2.326,6.523,6.523,0,0,1,.856-.056H49.4a1.173,1.173,0,0,0,0-2.346Z" fill="#b02a30"/>
        </g>
      </g>
      <g id="Group_93" data-name="Group 93">
        <g id="Group_92" data-name="Group 92">
          <path id="Path_151" data-name="Path 151" d="M45.521,72.421h-.005l-1.549.007a1.173,1.173,0,0,0,.005,2.346h.005l1.549-.007a1.173,1.173,0,0,0-.005-2.346Z" fill="#b02a30"/>
        </g>
      </g>
      <g id="Group_95" data-name="Group 95">
        <g id="Group_94" data-name="Group 94">
          <path id="Path_152" data-name="Path 152" d="M50.792,52.42H49.242a1.173,1.173,0,1,0,0,2.346h1.549a1.173,1.173,0,1,0,0-2.346Z" fill="#b02a30"/>
        </g>
      </g>
      <g id="Group_97" data-name="Group 97">
        <g id="Group_96" data-name="Group 96">
          <path id="Path_153" data-name="Path 153" d="M44.576,39.615a1.174,1.174,0,0,0-1.658-.067,8.819,8.819,0,0,0-1.182,1.336,1.173,1.173,0,1,0,1.906,1.369,6.483,6.483,0,0,1,.867-.98A1.173,1.173,0,0,0,44.576,39.615Z" fill="#b02a30"/>
        </g>
      </g>
      <g id="Group_99" data-name="Group 99">
        <g id="Group_98" data-name="Group 98">
          <path id="Path_154" data-name="Path 154" d="M51.719,72.393h-.005l-1.549.007a1.173,1.173,0,0,0,.005,2.346h.005l1.549-.007a1.173,1.173,0,0,0-.005-2.346Z" fill="#b02a30"/>
        </g>
      </g>
      <g id="Group_101" data-name="Group 101">
        <g id="Group_100" data-name="Group 100">
          <path id="Path_155" data-name="Path 155" d="M39.324,72.449h-.005l-1.549.007a1.173,1.173,0,0,0,.005,2.346h.005l1.549-.007a1.173,1.173,0,0,0-.005-2.346Z" fill="#b02a30"/>
        </g>
      </g>
      <g id="Group_103" data-name="Group 103">
        <g id="Group_102" data-name="Group 102">
          <path id="Path_156" data-name="Path 156" d="M45.442,51.434a6.474,6.474,0,0,1-1.03-.807,1.173,1.173,0,1,0-1.627,1.691,8.817,8.817,0,0,0,1.4,1.1,1.173,1.173,0,1,0,1.252-1.984Z" fill="#b02a30"/>
        </g>
      </g>
      <g id="Group_105" data-name="Group 105">
        <g id="Group_104" data-name="Group 104">
          <path id="Path_157" data-name="Path 157" d="M42.558,47.232A6.483,6.483,0,0,1,42.44,46v-.065a1.173,1.173,0,0,0-1.159-1.187h-.014a1.173,1.173,0,0,0-1.173,1.16V46a8.833,8.833,0,0,0,.162,1.685,1.173,1.173,0,0,0,2.3-.449Z" fill="#b02a30"/>
        </g>
      </g>
      <g id="Group_107" data-name="Group 107">
        <g id="Group_106" data-name="Group 106">
          <path id="Path_158" data-name="Path 158" d="M56.99,52.42H55.44a1.173,1.173,0,0,0,0,2.346H56.99a1.173,1.173,0,1,0,0-2.346Z" fill="#b02a30"/>
        </g>
      </g>
      <g id="Group_109" data-name="Group 109">
        <g id="Group_108" data-name="Group 108">
          <path id="Path_159" data-name="Path 159" d="M75.824,54.809a11.17,11.17,0,0,0-1.436-.963,1.173,1.173,0,0,0-1.152,2.044,8.848,8.848,0,0,1,1.134.76,1.173,1.173,0,0,0,1.454-1.842Z" fill="#b02a30"/>
        </g>
      </g>
      <g id="Group_111" data-name="Group 111">
        <g id="Group_110" data-name="Group 110">
          <path id="Path_160" data-name="Path 160" d="M71.47,73.234a1.174,1.174,0,0,0-1.323-1,8.827,8.827,0,0,1-1.17.083h-.22a1.173,1.173,0,0,0,.005,2.346h.225a11.2,11.2,0,0,0,1.48-.1A1.173,1.173,0,0,0,71.47,73.234Z" fill="#b02a30"/>
        </g>
      </g>
      <g id="Group_113" data-name="Group 113">
        <g id="Group_112" data-name="Group 112">
          <path id="Path_161" data-name="Path 161" d="M76.647,69.935a1.173,1.173,0,0,0-1.658-.04,8.862,8.862,0,0,1-1.059.863,1.173,1.173,0,1,0,1.337,1.928,11.221,11.221,0,0,0,1.341-1.092A1.173,1.173,0,0,0,76.647,69.935Z" fill="#b02a30"/>
        </g>
      </g>
      <g id="Group_115" data-name="Group 115">
        <g id="Group_114" data-name="Group 114">
          <path id="Path_162" data-name="Path 162" d="M78.93,64.237a1.173,1.173,0,0,0-1.37.936A8.787,8.787,0,0,1,77.2,66.49a1.173,1.173,0,1,0,2.21.788,11.125,11.125,0,0,0,.452-1.671A1.174,1.174,0,0,0,78.93,64.237Z" fill="#b02a30"/>
        </g>
      </g>
      <g id="Group_117" data-name="Group 117">
        <g id="Group_116" data-name="Group 116">
          <path id="Path_163" data-name="Path 163" d="M79.627,60.466a11.077,11.077,0,0,0-.607-1.623,1.173,1.173,0,1,0-2.126.992,8.718,8.718,0,0,1,.478,1.278,1.173,1.173,0,1,0,2.255-.647Z" fill="#b02a30"/>
        </g>
      </g>
      <g id="Group_119" data-name="Group 119">
        <g id="Group_118" data-name="Group 118">
          <path id="Path_164" data-name="Path 164" d="M63.187,52.42H61.638a1.173,1.173,0,1,0,0,2.346h1.549a1.173,1.173,0,0,0,0-2.346Z" fill="#b02a30"/>
        </g>
      </g>
      <g id="Group_121" data-name="Group 121">
        <g id="Group_120" data-name="Group 120">
          <path id="Path_165" data-name="Path 165" d="M57.917,72.365h-.005l-1.549.007a1.173,1.173,0,0,0,.005,2.346h.005l1.549-.007a1.173,1.173,0,0,0-.005-2.346Z" fill="#b02a30"/>
        </g>
      </g>
      <g id="Group_123" data-name="Group 123">
        <g id="Group_122" data-name="Group 122">
          <path id="Path_166" data-name="Path 166" d="M69.437,52.432c-.166-.007-.334-.011-.5-.011h-1.1a1.173,1.173,0,0,0,0,2.346h1.1q.2,0,.4.009h.053a1.173,1.173,0,0,0,.051-2.345Z" fill="#b02a30"/>
        </g>
      </g>
      <g id="Group_125" data-name="Group 125">
        <g id="Group_124" data-name="Group 124">
          <path id="Path_167" data-name="Path 167" d="M64.115,72.337h-.005l-1.549.007a1.173,1.173,0,0,0,.005,2.346h.005l1.549-.007a1.173,1.173,0,0,0-.005-2.346Z" fill="#b02a30"/>
        </g>
      </g>
    </g>
  </g>
</svg>
