<svg xmlns="http://www.w3.org/2000/svg" xmlns:xlink="http://www.w3.org/1999/xlink" width="80" height="80" viewBox="0 0 80 80">
  <defs>
    <clipPath id="clip-path">
      <rect id="Rectangle_332" data-name="Rectangle 332" width="80" height="80" transform="translate(410 1750)" fill="rgba(255,255,255,0)"/>
    </clipPath>
  </defs>
  <g id="icon-visa" transform="translate(-410 -1750)" clip-path="url(#clip-path)">
    <g id="passport" transform="translate(407.336 1747.371)">
      <path id="Path_32" data-name="Path 32" d="M64.776,26.012a1.331,1.331,0,0,0,1.82-.488L69.26,20.91a1.332,1.332,0,1,0-2.307-1.332l-2.664,4.615A1.332,1.332,0,0,0,64.776,26.012Z" fill="#fff"/>
      <path id="Path_33" data-name="Path 33" d="M62.338,16.913a1.332,1.332,0,0,0,2.307,1.333l1.334-2.308A1.332,1.332,0,0,0,63.672,14.6Z" fill="#fff"/>
      <path id="Path_34" data-name="Path 34" d="M69.39,28.676a1.331,1.331,0,0,0,1.82-.488l1.332-2.307a1.332,1.332,0,1,0-2.307-1.332L68.9,26.857A1.332,1.332,0,0,0,69.39,28.676Z" fill="#fff"/>
      <path id="Path_35" data-name="Path 35" d="M61.493,21.04a1.332,1.332,0,1,0,.488,1.82,1.332,1.332,0,0,0-.488-1.82Z" fill="#fff"/>
      <circle id="Ellipse_2" data-name="Ellipse 2" cx="1.332" cy="1.332" r="1.332" transform="translate(72.321 21.342) rotate(-68.16)" fill="#fff"/>
      <path id="Path_36" data-name="Path 36" d="M33.3,13.322h0a1.332,1.332,0,0,0,1.332-1.332l0-2.664a1.332,1.332,0,0,0-1.332-1.333h0a1.332,1.332,0,0,0-1.332,1.332l0,2.665A1.332,1.332,0,0,0,33.3,13.322Z" fill="#fff"/>
      <circle id="Ellipse_3" data-name="Ellipse 3" cx="1.332" cy="1.332" r="1.332" transform="translate(42.629 7.993)" fill="#fff"/>
      <path id="Path_37" data-name="Path 37" d="M4,82.594H54.619a6.668,6.668,0,0,0,6.661-6.661V56.046l21.206-36.73A1.332,1.332,0,0,0,82,17.5L56.617,2.843a1.332,1.332,0,0,0-1.82.488l-4.175,7.231V4A1.332,1.332,0,0,0,49.29,2.664H19.982A1.332,1.332,0,0,0,18.65,4V15.986H4a1.332,1.332,0,0,0-1.332,1.332V81.262A1.332,1.332,0,0,0,4,82.594ZM55.951,43.961l4.65-8.053,2.307,1.332L55.951,49.29Zm0,10.657,9.931-17.2a1.332,1.332,0,0,0-.488-1.82l-4.615-2.664a1.332,1.332,0,0,0-1.82.488l-3.009,5.211V33.3l.7-1.214a1.326,1.326,0,0,0-.7-1.918v-3.1l14.236,8.219L55.951,59.947Zm2.664,21.315a4,4,0,0,1-4,4h0a6.626,6.626,0,0,0,1.336-4V65.276l2.664-4.615Zm12.9-42.951L55.951,23.994V22.647l7.41-12.834,16.152,9.325ZM56.438,5.816l4.615,2.664L54.923,19.1a6.674,6.674,0,0,0-4.421-3Zm-8.481,9.36-.467.809h-2.2V14.654a1.332,1.332,0,1,0-2.664,0v1.332H39.965v-4a1.332,1.332,0,0,0-2.664,0v4H29.308V5.329h18.65ZM21.315,5.329h5.329V15.986H21.315ZM5.329,18.65H49.29a4,4,0,0,1,4,4V75.933a4,4,0,0,1-4,4H5.329Z" fill="#fff"/>
      <path id="Path_38" data-name="Path 38" d="M38.633,66.608H19.982a1.332,1.332,0,1,0,0,2.664h18.65a1.332,1.332,0,1,0,0-2.664Z" fill="#fff"/>
      <path id="Path_39" data-name="Path 39" d="M42.629,23.979H15.986a1.332,1.332,0,1,0,0,2.664H42.629a1.332,1.332,0,0,0,0-2.664Z" fill="#fff"/>
      <path id="Path_40" data-name="Path 40" d="M29.308,31.972A14.654,14.654,0,1,0,43.961,46.626,14.654,14.654,0,0,0,29.308,31.972ZM30.64,42.595a25.684,25.684,0,0,0,4.4-.58,11.925,11.925,0,0,1,.852,3.279H30.64Zm0-2.667V36.659a12.073,12.073,0,0,1,3.022,2.914,23.623,23.623,0,0,1-3.022.355Zm-2.664-3.269v3.269a23.623,23.623,0,0,1-3.022-.355,12.073,12.073,0,0,1,3.022-2.914Zm0,5.936v2.7H22.724a11.925,11.925,0,0,1,.852-3.279,25.684,25.684,0,0,0,4.4.58Zm-7.931,2.7h-2.65a11.906,11.906,0,0,1,1.665-4.885,16.108,16.108,0,0,0,1.948.857,14.558,14.558,0,0,0-.963,4.028Zm0,2.664a14.558,14.558,0,0,0,.963,4.028,16.109,16.109,0,0,0-1.948.857,11.906,11.906,0,0,1-1.665-4.885Zm2.68,0h5.251v2.7a25.684,25.684,0,0,0-4.4.58,11.925,11.925,0,0,1-.852-3.279Zm5.251,5.366v3.269a12.073,12.073,0,0,1-3.022-2.914,23.622,23.622,0,0,1,3.022-.355Zm2.664,3.269V53.323a23.623,23.623,0,0,1,3.022.355,12.073,12.073,0,0,1-3.022,2.914Zm0-5.936v-2.7h5.251a11.925,11.925,0,0,1-.852,3.279A25.684,25.684,0,0,0,30.64,50.656Zm7.931-2.7h2.65a11.906,11.906,0,0,1-1.665,4.885,16.109,16.109,0,0,0-1.948-.857,14.558,14.558,0,0,0,.963-4.028Zm0-2.664a14.558,14.558,0,0,0-.963-4.028,16.109,16.109,0,0,0,1.948-.857,11.906,11.906,0,0,1,1.665,4.885Zm-.685-7.032a14.331,14.331,0,0,1-1.49.6,14.794,14.794,0,0,0-3.114-3.547,12.014,12.014,0,0,1,4.6,2.945ZM25.332,35.316a14.794,14.794,0,0,0-3.114,3.547,14.328,14.328,0,0,1-1.49-.6,12.014,12.014,0,0,1,4.6-2.945Zm-4.6,19.673a14.33,14.33,0,0,1,1.49-.6,14.794,14.794,0,0,0,3.114,3.547,12.014,12.014,0,0,1-4.6-2.945Zm12.554,2.945A14.794,14.794,0,0,0,36.4,54.388a14.329,14.329,0,0,1,1.49.6,12.014,12.014,0,0,1-4.6,2.945Z" fill="#fff"/>
      <path id="Path_41" data-name="Path 41" d="M31.972,71.937H26.643a1.332,1.332,0,0,0,0,2.664h5.329a1.332,1.332,0,0,0,0-2.664Z" fill="#fff"/>
    </g>
  </g>
</svg>
