<svg xmlns="http://www.w3.org/2000/svg" width="79.989" height="80" viewBox="0 0 79.989 80">
  <g id="icon-invest-target" transform="translate(-0.036 0.001)">
    <g id="Group_71" data-name="Group 71" transform="translate(52.79 61.189)">
      <g id="Group_70" data-name="Group 70">
        <path id="Path_88" data-name="Path 88" d="M340.4,392.093a1.565,1.565,0,0,0-2.231-.02l-.015.015a1.565,1.565,0,0,0-.047,2.23,1.565,1.565,0,0,0,2.231.005A1.565,1.565,0,0,0,340.4,392.093Z" transform="translate(-337.662 -391.615)" fill="#fff"/>
      </g>
    </g>
    <g id="Group_73" data-name="Group 73" transform="translate(14.855 30.567)">
      <g id="Group_72" data-name="Group 72">
        <path id="Path_89" data-name="Path 89" d="M149.695,196.653a1.562,1.562,0,1,0-2.93,1.085,32.817,32.817,0,0,1-49.437,38.382,1.562,1.562,0,1,0-1.78,2.568,35.947,35.947,0,0,0,54.147-42.035Z" transform="translate(-94.875 -195.633)" fill="#fff"/>
      </g>
    </g>
    <g id="Group_75" data-name="Group 75" transform="translate(0.036 8.135)">
      <g id="Group_74" data-name="Group 74" transform="translate(0)">
        <path id="Path_90" data-name="Path 90" d="M48.068,54.153A35.941,35.941,0,0,0,6.559,108.647a1.562,1.562,0,0,0,2.556-1.8,32.823,32.823,0,0,1,37.9-49.755,1.562,1.562,0,0,0,1.052-2.942Z" transform="translate(-0.036 -52.064)" fill="#fff"/>
      </g>
    </g>
    <g id="Group_77" data-name="Group 77" transform="translate(8.16 -0.001)">
      <g id="Group_76" data-name="Group 76" transform="translate(0 0)">
        <path id="Path_91" data-name="Path 91" d="M123.773,12.956a1.562,1.562,0,0,0-1.443-.964h-8.209l.883-.883a1.562,1.562,0,1,0-2.21-2.21l-.894.894V1.562a1.562,1.562,0,0,0-2.667-1.1L95.461,14.23a1.562,1.562,0,0,0-.458,1.1v5.42a27.5,27.5,0,0,0-15.167-4.5,27.809,27.809,0,1,0,14.4,51.6,1.562,1.562,0,0,0-1.62-2.672A24.686,24.686,0,1,1,95,24.592v2.1l-2.847,2.847a19.083,19.083,0,1,0,2.209,2.209l2.858-2.858H99.3a24.7,24.7,0,0,1,1.526,28.17,1.562,1.562,0,1,0,2.655,1.647,27.821,27.821,0,0,0-.347-29.817h5.42a1.563,1.563,0,0,0,1.1-.458l13.772-13.772A1.561,1.561,0,0,0,123.773,12.956Zm-28,31.111A15.953,15.953,0,1,1,89.94,31.754l-3.558,3.558a10.946,10.946,0,1,0,2.21,2.209l3.558-3.558A15.862,15.862,0,0,1,95.771,44.067Zm-17.04,1.1a1.562,1.562,0,0,0,2.209,0l5.409-5.409a7.821,7.821,0,1,1-2.209-2.21l-5.409,5.409A1.562,1.562,0,0,0,78.731,45.172Zm19.4-21.606V15.981L108.776,5.334v7.584Zm9.782,2.2h-7.562L111,15.116h7.562Z" transform="translate(-52.027 0.001)" fill="#fff"/>
      </g>
    </g>
    <g id="Group_79" data-name="Group 79" transform="translate(10.072 66.776)">
      <g id="Group_78" data-name="Group 78">
        <path id="Path_92" data-name="Path 92" d="M66.934,427.827a1.561,1.561,0,1,0,.458,1.1A1.574,1.574,0,0,0,66.934,427.827Z" transform="translate(-64.267 -427.369)" fill="#fff"/>
      </g>
    </g>
  </g>
</svg>
