<svg xmlns="http://www.w3.org/2000/svg" width="80" height="80" viewBox="0 0 80 80">
  <g id="icon-invest-tourist" transform="translate(-20 -20)">
    <rect id="Rectangle_370" data-name="Rectangle 370" width="80" height="80" transform="translate(20 20)" fill="rgba(255,255,255,0.02)"/>
    <g id="icon-invest-tourist-2" data-name="icon-invest-tourist" transform="translate(-27.07 20)">
      <path id="Path_115" data-name="Path 115" d="M107.688,54.421a11.347,11.347,0,0,1,2.6,1.023,1.172,1.172,0,0,0,1.12-2.059,13.694,13.694,0,0,0-3.142-1.234l-10.651-2.73A1.959,1.959,0,0,1,96.15,47.53v-2.96a15.733,15.733,0,0,0,6.9-13.013V22.418h1.764a2.109,2.109,0,0,0,1.755-3.279l-3.581-5.371L101.147,3.537A4.293,4.293,0,0,0,96.918,0H77.7a4.293,4.293,0,0,0-4.229,3.537L71.633,13.768l-3.581,5.371a2.109,2.109,0,0,0,1.755,3.279h1.764v9.138a15.648,15.648,0,0,0,4.609,11.129,15.938,15.938,0,0,0,2.287,1.894v2.95A1.96,1.96,0,0,1,77,49.421l-10.652,2.73A13.665,13.665,0,0,0,56.07,65.394V78.828a1.172,1.172,0,0,0,2.344,0v-3.99h9.375v3.99a1.172,1.172,0,0,0,2.344,0V71.322a1.172,1.172,0,0,0-2.344,0v1.172H58.414v-7.1A11.323,11.323,0,0,1,66.93,54.421L73.636,52.7l2.725,10.9a2.11,2.11,0,0,0-2.017,2.1V77.891A2.112,2.112,0,0,0,76.453,80H98.165a2.112,2.112,0,0,0,2.109-2.109V65.7a2.11,2.11,0,0,0-2.015-2.1l2.723-10.9ZM75.778,3.951A1.951,1.951,0,0,1,77.7,2.344H96.917A1.952,1.952,0,0,1,98.84,3.951l.791,4.4H74.987ZM70.246,20.074l3.125-4.688h5.8a1.172,1.172,0,1,0,0-2.344H74.145l.421-2.344h25.486l.421,2.344H84.635a1.172,1.172,0,0,0,0,2.344h16.613l3.125,4.688Zm7.593,20.954a13.318,13.318,0,0,1-3.923-9.472V22.418H100.7v9.138A13.4,13.4,0,0,1,80.3,42.969l0,0A13.509,13.509,0,0,1,77.838,41.028Zm16.868,9.133a9.99,9.99,0,0,1-14.795,0,4.287,4.287,0,0,0,.9-2.632V45.9a15.77,15.77,0,0,0,12.994-.008V47.53A4.288,4.288,0,0,0,94.707,50.162ZM97.93,77.656H76.688V72.969h6.343a4.436,4.436,0,0,0,8.557,0H97.93ZM85.217,71.791a2.093,2.093,0,0,1,4.185,0s0,0,0,.006,0,0,0,.006a2.093,2.093,0,0,1-4.185,0s0,0,0-.006,0,0,0-.006ZM97.93,70.625H91.587a4.436,4.436,0,0,0-8.557,0H76.688V65.938h5.006A2.112,2.112,0,0,0,83.8,63.828V62.9h7.013v.929a2.112,2.112,0,0,0,2.109,2.109h5.006v4.688Zm-2.086-7.031H93.159v-.929a2.112,2.112,0,0,0-2.109-2.109H83.568a2.112,2.112,0,0,0-2.109,2.109v.929H78.776L75.907,52.12c.362-.091,1.774-.44,2.106-.567a12.336,12.336,0,0,0,18.594,0,21.464,21.464,0,0,0,2.106.567Zm22.7,1.8a13.581,13.581,0,0,0-2.633-8.065,1.172,1.172,0,0,0-1.892,1.383,11.253,11.253,0,0,1,2.181,6.682v7.1H106.83v-.313a1.172,1.172,0,0,0-2.344,0v6.647a1.172,1.172,0,0,0,2.344,0v-3.99H116.2v3.99a1.172,1.172,0,0,0,2.344,0Z" fill="#fff"/>
    </g>
  </g>
</svg>
