<svg xmlns="http://www.w3.org/2000/svg" width="80.845" height="80" viewBox="0 0 80.845 80">
  <g id="icon-invest-travel" transform="translate(-0.378 -0.42)">
    <path id="Path_101" data-name="Path 101" d="M80.837,21.006a6.484,6.484,0,0,0-7.578-4l-4.4-2.683a6.407,6.407,0,0,0-5.508-.542l-16.1,5.857L34.035.959A1.283,1.283,0,0,0,32.554.5l-7.2,2.621a1.276,1.276,0,0,0-.764,1.638l7.425,20.425L16.012,31l-8.6-9.616a1.275,1.275,0,0,0-1.39-.349L1.22,22.788a1.276,1.276,0,0,0-.764,1.638L7.45,43.644a1.278,1.278,0,0,0,1.2.841h.017l27.089-.332a1.251,1.251,0,0,0,.422-.078l2.4-.876,7,19.222a1.274,1.274,0,0,0,1.638.764l7.209-2.624a1.276,1.276,0,0,0,.836-1.306L53.472,37.782,77.02,29.206a6.4,6.4,0,0,0,3.817-8.2ZM27.432,5.083l5.08-1.85L44.764,20.543,34.42,24.306ZM6.791,34.359,3.3,24.754l2.792-1.015,7.339,8.207ZM47.539,60.346,38.794,36.32l11.641-4.237,2.194,26.411ZM76.147,26.807,53.254,35.143l-.41-4.938a1.274,1.274,0,0,0-.584-.972,1.29,1.29,0,0,0-1.126-.125L36.718,34.354a1.278,1.278,0,0,0-.763,1.639L37.7,40.8l-2.2.8-25.965.32L7.668,36.763,64.221,16.185a3.852,3.852,0,0,1,3.311.322l1.225.747L65,18.62l.874,2.4,5.673-2.065.865.528a1.277,1.277,0,0,0,1.093.114,3.837,3.837,0,1,1,2.637,7.206Z" transform="translate(0 0)" fill="#fff"/>
    <path id="Path_102" data-name="Path 102" d="M0,0H2.555V2.557H0Z" transform="translate(56.61 21.674) rotate(-19.993)" fill="#fff"/>
    <path id="Path_103" data-name="Path 103" d="M0,0H2.555V2.557H0Z" transform="translate(51.804 23.424) rotate(-19.993)" fill="#fff"/>
    <path id="Path_104" data-name="Path 104" d="M0,0H2.555V2.557H0Z" transform="translate(47 25.175) rotate(-19.993)" fill="#fff"/>
    <path id="Path_105" data-name="Path 105" d="M0,0H2.555V2.557H0Z" transform="translate(42.193 26.925) rotate(-19.993)" fill="#fff"/>
    <path id="Path_106" data-name="Path 106" d="M0,0H2.555V2.557H0Z" transform="translate(37.387 28.676) rotate(-19.993)" fill="#fff"/>
    <path id="Path_107" data-name="Path 107" d="M0,0H2.555V2.557H0Z" transform="translate(32.581 30.426) rotate(-19.993)" fill="#fff"/>
    <path id="Path_108" data-name="Path 108" d="M0,0H2.555V2.557H0Z" transform="translate(27.775 32.176) rotate(-19.993)" fill="#fff"/>
    <path id="Path_109" data-name="Path 109" d="M0,0H2.557V2.557H0Z" transform="translate(22.958 33.941) rotate(-19.993)" fill="#fff"/>
    <path id="Path_110" data-name="Path 110" d="M0,0H2.557V2.557H0Z" transform="translate(18.151 35.691) rotate(-19.993)" fill="#fff"/>
    <path id="Path_111" data-name="Path 111" d="M20.67,45.113h7.905a3.835,3.835,0,1,0,0-2.557H20.67a7.67,7.67,0,0,0,0,15.34H42.4V55.34H20.67a5.113,5.113,0,0,1,0-10.227Zm11.505-2.557A1.278,1.278,0,1,1,30.9,43.835,1.28,1.28,0,0,1,32.176,42.557Z" transform="translate(3.513 11.018)" fill="#fff"/>
    <path id="Path_112" data-name="Path 112" d="M38,52h2.557v2.557H38Z" transform="translate(10.473 14.358)" fill="#fff"/>
    <path id="Path_113" data-name="Path 113" d="M59.269,52H48.4v2.557H59.269a3.2,3.2,0,0,1,0,6.392H19v2.557H59.269a5.753,5.753,0,1,0,0-11.505Z" transform="translate(5.184 14.358)" fill="#fff"/>
    <path id="Path_114" data-name="Path 114" d="M5.835,57a3.835,3.835,0,1,0,3.6,5.113H21.176V59.557H9.435A3.83,3.83,0,0,0,5.835,57Zm0,5.113a1.278,1.278,0,1,1,1.278-1.278A1.28,1.28,0,0,1,5.835,62.113Z" transform="translate(0.451 15.75)" fill="#fff"/>
  </g>
</svg>
